<svg xmlns="http://www.w3.org/2000/svg" width="512" height="512" viewBox="0 0 512 512" version="1.1">
	<path d="M 138.105 22.583 C 122.086 26.890, 110.133 39.938, 107.093 56.434 C 105.569 64.708, 105.551 447.204, 107.075 455.447 C 110.166 472.167, 122.353 485.314, 138.627 489.483 C 143.807 490.810, 157.355 490.977, 242.133 490.755 L 339.679 490.500 330.589 477.806 C 315.026 456.070, 302.378 434.741, 293.939 416 L 289.210 405.500 218.605 405.243 L 148 404.987 148 255.493 L 148 106 257 106 L 366 106 366 172.607 C 366 233.815, 366.132 239.163, 367.633 238.587 C 371.810 236.985, 389.234 234.906, 396.938 235.091 L 405.500 235.297 405.782 149.399 C 405.971 91.668, 405.713 61.433, 404.993 57.195 C 402.082 40.057, 390.079 26.860, 373.465 22.533 C 364.868 20.294, 146.445 20.340, 138.105 22.583 M 326.552 246.587 C 311.420 249.972, 298.913 257.153, 287.869 268.799 C 274.345 283.058, 268.128 297.329, 267.250 316.130 C 266.393 334.461, 270.593 350.071, 282.955 374.500 C 294.980 398.265, 313.560 425.866, 333.960 450.272 C 342.612 460.623, 340.593 461.240, 354.434 444.010 C 389.277 400.632, 410.541 361.526, 415.643 331.445 C 417.072 323.016, 417.153 320.098, 416.174 312.304 C 412.344 281.816, 391.865 257.288, 362.500 248.018 C 353.192 245.079, 336.296 244.407, 326.552 246.587 M 334 298.480 C 316.542 304.119, 311.087 326.933, 324.088 339.934 C 336.013 351.859, 356.341 348.814, 364.466 333.885 C 366.906 329.403, 367.193 327.988, 366.759 322.586 C 366.182 315.396, 364.201 310.998, 359.140 305.665 C 352.135 298.286, 342.834 295.627, 334 298.480" stroke="none" fill="black" fill-rule="evenodd"/>
</svg>